<svg width="100" height="100" viewBox="0 0 100 100" fill="none" xmlns="http://www.w3.org/2000/svg">
<g clip-path="url(#clip0_234_21)">
<path d="M45.1667 31.875C48.2571 31.0933 51.4812 30.9978 54.6125 31.5953C57.7437 32.1928 60.7062 33.4686 63.2917 35.3333C66 32.8333 68.5417 30.1666 71.0417 27.5C64.9415 22.2791 57.0577 19.6212 49.0417 20.0833C43.6878 20.283 38.4819 21.8952 33.9523 24.7564C29.4226 27.6177 25.7303 31.626 23.25 36.375L32.625 43.9583C33.6038 41.0919 35.2522 38.5003 37.4335 36.3988C39.6147 34.2973 42.2658 32.7464 45.1667 31.875Z" fill="#EA4335"/>
<path d="M32.6666 56.0833C31.229 52.1695 31.229 47.8722 32.6666 43.9583L23.25 36.375C21.0034 40.558 19.8834 45.2533 20 50C19.9334 54.7697 21.0957 59.4762 23.375 63.6667L32.75 56.2917C32.7359 56.2175 32.7076 56.1467 32.6666 56.0833Z" fill="#FAB908"/>
<path d="M32.75 56.3335L23.375 63.7085C27.0089 70.6627 33.2127 75.9247 40.6667 78.3752C45.6579 80.0688 50.9951 80.4794 56.1867 79.5693C61.3783 78.6591 66.2575 76.4574 70.375 73.1668L61.5417 65.7918C60.5171 66.5162 59.3947 67.0914 58.2083 67.5002C55.8075 68.4778 53.235 68.9638 50.643 68.9293C48.051 68.8948 45.4922 68.3405 43.1183 67.2992C40.7444 66.258 38.6036 64.7509 36.8226 62.8673C35.0417 60.9838 33.6568 58.762 32.75 56.3335Z" fill="#34A853"/>
<path d="M73.6667 69.7918C78.7341 62.8984 80.957 54.3204 79.875 45.8335C70.0695 45.8335 60.3473 45.8335 50.7084 45.8335V56.0418C56.5834 56.0418 62.4167 56.0418 68.25 56.2502C67.1786 60.0974 64.8638 63.4818 61.6667 65.8752L70.5 73.2502C71.6709 72.2085 72.732 71.0497 73.6667 69.7918Z" fill="#0066D9"/>
</g>
<defs>
<clipPath id="clip0_234_21">
<rect width="100" height="100" fill="white"/>
</clipPath>
</defs>
</svg>
